<svg width="368" height="348" viewBox="0 0 368 348" fill="none" xmlns="http://www.w3.org/2000/svg">
<g clip-path="url(#clip0_77_30)">
<g opacity="0.5">
<path d="M96.3639 84.539L16.6552 84.6225C15.2842 84.6239 14.174 85.7364 14.1755 87.1074L14.2599 167.753C14.2613 169.124 15.3739 170.234 16.7448 170.233L96.4536 170.149C97.8245 170.148 98.9347 169.035 98.9333 167.664L98.8489 87.0187C98.8474 85.6478 97.7349 84.5376 96.3639 84.539Z" fill="#EAE6FF"/>
<path d="M93.1776 91.8394C94.0017 91.8394 94.6697 91.1714 94.6697 90.3474C94.6697 89.5233 94.0017 88.8553 93.1776 88.8553C92.3536 88.8553 91.6855 89.5233 91.6855 90.3474C91.6855 91.1714 92.3536 91.8394 93.1776 91.8394Z" fill="#B2D4FF"/>
<path d="M87.496 91.8662C88.32 91.8662 88.9881 91.1982 88.9881 90.3742C88.9881 89.5501 88.32 88.8821 87.496 88.8821C86.6719 88.8821 86.0039 89.5501 86.0039 90.3742C86.0039 91.1982 86.6719 91.8662 87.496 91.8662Z" fill="#B2D4FF"/>
<path d="M81.8163 91.893C82.6403 91.893 83.3084 91.2249 83.3084 90.4009C83.3084 89.5768 82.6403 88.9088 81.8163 88.9088C80.9922 88.9088 80.3242 89.5768 80.3242 90.4009C80.3242 91.2249 80.9922 91.893 81.8163 91.893Z" fill="#B2D4FF"/>
<path d="M49.9473 92.7494L20.233 92.6089C19.69 92.6089 19.1692 92.3932 18.7852 92.0092C18.4013 91.6252 18.1855 91.1045 18.1855 90.5615C18.1855 90.0185 18.4013 89.4977 18.7852 89.1137C19.1692 88.7297 19.69 88.514 20.233 88.514L49.9473 88.6546C50.4903 88.6546 51.0111 88.8703 51.395 89.2542C51.779 89.6382 51.9947 90.159 51.9947 90.702C51.9947 91.245 51.779 91.7657 51.395 92.1497C51.0111 92.5337 50.4903 92.7494 49.9473 92.7494Z" fill="#B2D4FF"/>
<path d="M91.7592 98.5504H21.1501C19.4503 98.5504 18.0723 99.9284 18.0723 101.628V152.138C18.0723 153.838 19.4503 155.216 21.1501 155.216H91.7592C93.4591 155.216 94.8371 153.838 94.8371 152.138V101.628C94.8371 99.9284 93.4591 98.5504 91.7592 98.5504Z" fill="white"/>
<path d="M26.6968 109.731C26.1538 109.731 25.633 109.515 25.249 109.131C24.8651 108.747 24.6494 108.227 24.6494 107.684C24.6494 107.141 24.8651 106.62 25.249 106.236C25.633 105.852 26.1538 105.636 26.6968 105.636L87.5841 105.576C88.1271 105.576 88.6478 105.792 89.0318 106.176C89.4158 106.56 89.6315 107.08 89.6315 107.623C89.6315 108.166 89.4158 108.687 89.0318 109.071C88.6478 109.455 88.1271 109.671 87.5841 109.671L26.6968 109.731ZM26.65 118.57C26.1069 118.57 25.5862 118.354 25.2022 117.97C24.8182 117.586 24.6025 117.065 24.6025 116.522C24.6025 115.979 24.8182 115.458 25.2022 115.074C25.5862 114.69 26.1069 114.475 26.65 114.475L76.7716 114.354C77.3146 114.354 77.8353 114.57 78.2193 114.954C78.6033 115.338 78.819 115.859 78.819 116.402C78.819 116.945 78.6033 117.466 78.2193 117.85C77.8353 118.233 77.3146 118.449 76.7716 118.449L26.65 118.57ZM26.65 145.741C26.1069 145.741 25.5862 145.526 25.2022 145.142C24.8182 144.758 24.6025 144.237 24.6025 143.694C24.6025 143.151 24.8182 142.63 25.2022 142.246C25.5862 141.862 26.1069 141.647 26.65 141.647L68.5217 141.519C69.0647 141.519 69.5854 141.735 69.9694 142.119C70.3534 142.503 70.5691 143.024 70.5691 143.567C70.5691 144.11 70.3534 144.631 69.9694 145.015C69.5854 145.399 69.0647 145.614 68.5217 145.614L26.6566 145.741H26.65Z" fill="#DFE1E5"/>
<path d="M46.689 163.927C46.146 163.927 45.6252 163.712 45.2413 163.328C44.8573 162.944 44.6416 162.423 44.6416 161.88C44.6416 161.337 44.8573 160.816 45.2413 160.432C45.6252 160.048 46.146 159.832 46.689 159.832H66.4406C66.9836 159.832 67.5044 160.048 67.8883 160.432C68.2723 160.816 68.488 161.337 68.488 161.88C68.488 162.423 68.2723 162.944 67.8883 163.328C67.5044 163.712 66.9836 163.927 66.4406 163.927H46.689Z" fill="#B2D4FF"/>
</g>
<path d="M217.762 227.538C217.763 227.962 217.68 228.382 217.519 228.774C217.357 229.166 217.119 229.522 216.82 229.823C216.52 230.123 216.164 230.361 215.773 230.523C215.381 230.686 214.961 230.769 214.537 230.769L136.32 230.856C135.465 230.855 134.645 230.515 134.039 229.91C133.434 229.306 133.092 228.487 133.089 227.631L132.941 88.8486C132.941 88.4245 133.023 88.0044 133.185 87.6124C133.347 87.2203 133.584 86.864 133.884 86.5638C134.183 86.2637 134.539 86.0255 134.931 85.863C135.322 85.7005 135.742 85.6169 136.166 85.6169L214.383 85.5299C215.239 85.5317 216.059 85.8718 216.664 86.476C217.269 87.0803 217.611 87.8995 217.615 88.7549V102.378L217.675 159.418L217.762 227.538Z" fill="#EAE6FF"/>
<path d="M165.479 224.587C164.936 224.587 164.415 224.371 164.031 223.987C163.647 223.603 163.432 223.083 163.432 222.54C163.432 221.997 163.647 221.476 164.031 221.092C164.415 220.708 164.936 220.492 165.479 220.492H185.231C185.774 220.492 186.294 220.708 186.678 221.092C187.062 221.476 187.278 221.997 187.278 222.54C187.278 223.083 187.062 223.603 186.678 223.987C186.294 224.371 185.774 224.587 185.231 224.587H165.479Z" fill="#B2D4FF"/>
<path d="M210.515 99.6678H139.906C138.206 99.6678 136.828 101.046 136.828 102.746V153.255C136.828 154.955 138.206 156.333 139.906 156.333H210.515C212.215 156.333 213.593 154.955 213.593 153.255V102.746C213.593 101.046 212.215 99.6678 210.515 99.6678Z" fill="#C0B6F2"/>
<path d="M210.457 159.284H139.847C138.148 159.284 136.77 160.662 136.77 162.362V212.871C136.77 214.571 138.148 215.949 139.847 215.949H210.457C212.156 215.949 213.534 214.571 213.534 212.871V162.362C213.534 160.662 212.156 159.284 210.457 159.284Z" fill="#EFF7FF"/>
<path d="M140.77 168.33C140.227 168.33 139.706 168.114 139.322 167.73C138.938 167.346 138.723 166.825 138.723 166.282C138.723 165.739 138.938 165.219 139.322 164.835C139.706 164.451 140.227 164.235 140.77 164.235L201.657 164.182C201.936 164.166 202.214 164.207 202.476 164.302C202.738 164.398 202.977 164.546 203.18 164.737C203.383 164.928 203.544 165.159 203.654 165.415C203.765 165.671 203.822 165.947 203.822 166.226C203.822 166.504 203.765 166.78 203.654 167.036C203.544 167.292 203.383 167.523 203.18 167.714C202.977 167.905 202.738 168.053 202.476 168.149C202.214 168.245 201.936 168.286 201.657 168.27L140.77 168.33ZM140.723 177.175C140.18 177.175 139.659 176.96 139.275 176.576C138.891 176.192 138.676 175.671 138.676 175.128C138.676 174.585 138.891 174.064 139.275 173.68C139.659 173.296 140.18 173.08 140.723 173.08L190.845 172.953C191.388 172.953 191.909 173.169 192.293 173.553C192.677 173.937 192.892 174.458 192.892 175.001C192.892 175.544 192.677 176.064 192.293 176.448C191.909 176.832 191.388 177.048 190.845 177.048L140.717 177.175H140.723ZM140.723 186.228C140.18 186.228 139.659 186.012 139.275 185.628C138.891 185.244 138.676 184.724 138.676 184.181C138.676 183.638 138.891 183.117 139.275 182.733C139.659 182.349 140.18 182.133 140.723 182.133L201.61 182.006C202.153 182.006 202.674 182.222 203.058 182.606C203.442 182.99 203.658 183.51 203.658 184.053C203.658 184.597 203.442 185.117 203.058 185.501C202.674 185.885 202.153 186.101 201.61 186.101L140.723 186.228Z" fill="#9CB4DB"/>
<path d="M152.679 207.927H140.849C139.652 207.927 138.682 208.897 138.682 210.095V211.968C138.682 213.165 139.652 214.136 140.849 214.136H152.679C153.876 214.136 154.847 213.165 154.847 211.968V210.095C154.847 208.897 153.876 207.927 152.679 207.927Z" fill="#31CBFF"/>
<path d="M212.101 92.8297C212.926 92.8297 213.594 92.1616 213.594 91.3376C213.594 90.5135 212.926 89.8455 212.101 89.8455C211.277 89.8455 210.609 90.5135 210.609 91.3376C210.609 92.1616 211.277 92.8297 212.101 92.8297Z" fill="#B2D4FF"/>
<path d="M206.422 92.8565C207.246 92.8565 207.914 92.1884 207.914 91.3644C207.914 90.5403 207.246 89.8723 206.422 89.8723C205.598 89.8723 204.93 90.5403 204.93 91.3644C204.93 92.1884 205.598 92.8565 206.422 92.8565Z" fill="#B2D4FF"/>
<path d="M200.74 92.8832C201.564 92.8832 202.232 92.2152 202.232 91.3911C202.232 90.5671 201.564 89.899 200.74 89.899C199.916 89.899 199.248 90.5671 199.248 91.3911C199.248 92.2152 199.916 92.8832 200.74 92.8832Z" fill="#B2D4FF"/>
<path d="M168.871 93.7463L139.17 93.6058C138.627 93.6058 138.107 93.3901 137.723 93.0062C137.339 92.6222 137.123 92.1014 137.123 91.5584C137.123 91.0154 137.339 90.4946 137.723 90.1107C138.107 89.7267 138.627 89.511 139.17 89.511L168.885 89.6515C169.428 89.6515 169.949 89.8672 170.333 90.2512C170.716 90.6351 170.932 91.1559 170.932 91.6989C170.932 92.2419 170.716 92.7627 170.333 93.1467C169.949 93.5306 169.428 93.7463 168.885 93.7463H168.871Z" fill="#B2D4FF"/>
<path d="M210.668 158.923L139.965 158.997C138.262 158.998 136.882 160.381 136.884 162.084L136.937 212.661C136.939 214.364 138.321 215.744 140.025 215.742L210.728 215.668C212.431 215.666 213.811 214.284 213.809 212.58L213.756 162.004C213.754 160.3 212.372 158.921 210.668 158.923Z" fill="white"/>
<path d="M140.871 212.37C140.347 212.34 139.855 212.111 139.494 211.729C139.134 211.348 138.934 210.843 138.934 210.319C138.934 209.794 139.134 209.29 139.494 208.908C139.855 208.527 140.347 208.298 140.871 208.268H169.976C170.255 208.252 170.535 208.293 170.797 208.389C171.06 208.485 171.3 208.633 171.504 208.825C171.707 209.017 171.869 209.249 171.979 209.506C172.09 209.762 172.147 210.039 172.147 210.319C172.147 210.598 172.09 210.875 171.979 211.132C171.869 211.389 171.707 211.62 171.504 211.812C171.3 212.004 171.06 212.153 170.797 212.248C170.535 212.344 170.255 212.385 169.976 212.37H140.864H140.871Z" fill="#DFE1E5"/>
<path d="M213.761 161.11L213.814 204.749L154.024 204.809H136.942L136.889 161.177C136.888 160.889 136.944 160.602 137.054 160.335C137.164 160.068 137.325 159.826 137.529 159.621C137.733 159.417 137.975 159.254 138.242 159.144C138.509 159.033 138.795 158.976 139.083 158.976L211.566 158.896C211.856 158.896 212.143 158.953 212.41 159.065C212.678 159.176 212.921 159.34 213.125 159.546C213.329 159.752 213.49 159.996 213.599 160.264C213.708 160.533 213.763 160.821 213.761 161.11Z" fill="url(#paint0_linear_77_30)"/>
<path opacity="0.29" d="M133.182 106.078C133.391 106.054 133.602 106.054 133.811 106.078L203.871 114.776C204.682 114.878 205.419 115.297 205.921 115.942C206.422 116.587 206.648 117.404 206.547 118.215L200.332 168.33C200.23 169.139 199.811 169.875 199.168 170.377C198.525 170.878 197.709 171.105 196.899 171.006L133.235 163.111L133.182 106.078Z" fill="#4B4C4C"/>
<path d="M191.075 112.026L121.513 99.9103C119.838 99.6186 118.244 100.74 117.952 102.414L109.286 152.175C108.994 153.85 110.115 155.444 111.79 155.735L181.352 167.851C183.026 168.142 184.62 167.021 184.912 165.347L193.579 115.586C193.87 113.911 192.749 112.317 191.075 112.026Z" fill="url(#paint1_linear_77_30)"/>
<path d="M124.663 112.012C124.172 111.877 123.749 111.563 123.477 111.132C123.204 110.701 123.103 110.184 123.191 109.682C123.28 109.181 123.553 108.73 123.956 108.418C124.36 108.107 124.865 107.957 125.373 107.998L185.37 118.429C185.655 118.451 185.932 118.532 186.184 118.667C186.435 118.802 186.656 118.989 186.831 119.214C187.006 119.44 187.132 119.699 187.201 119.976C187.27 120.254 187.28 120.542 187.231 120.823C187.182 121.105 187.074 121.373 186.915 121.61C186.756 121.847 186.55 122.049 186.308 122.201C186.067 122.354 185.796 122.454 185.513 122.496C185.231 122.538 184.943 122.52 184.668 122.444L124.663 111.986V112.012Z" fill="url(#paint2_linear_77_30)"/>
<path d="M123.112 120.717C122.622 120.581 122.2 120.268 121.928 119.838C121.656 119.408 121.554 118.892 121.642 118.391C121.73 117.89 122.001 117.44 122.402 117.128C122.804 116.816 123.307 116.664 123.815 116.703L173.207 125.234C173.697 125.37 174.119 125.683 174.391 126.113C174.663 126.543 174.765 127.059 174.677 127.56C174.589 128.061 174.318 128.511 173.916 128.823C173.515 129.135 173.011 129.287 172.504 129.248L123.112 120.717Z" fill="url(#paint3_linear_77_30)"/>
<path d="M121.534 129.636C121.044 129.5 120.622 129.187 120.35 128.757C120.078 128.327 119.976 127.811 120.064 127.31C120.152 126.809 120.423 126.359 120.824 126.047C121.226 125.735 121.729 125.583 122.236 125.622L182.24 136.006C182.525 136.028 182.802 136.109 183.054 136.244C183.305 136.379 183.526 136.566 183.701 136.791C183.877 137.017 184.003 137.276 184.072 137.553C184.141 137.831 184.151 138.119 184.101 138.4C184.052 138.682 183.945 138.95 183.786 139.187C183.627 139.424 183.42 139.626 183.179 139.778C182.937 139.931 182.666 140.031 182.384 140.073C182.101 140.115 181.813 140.097 181.538 140.021L121.534 129.63V129.636Z" fill="url(#paint4_linear_77_30)"/>
<path d="M119.973 138.562C119.483 138.426 119.061 138.113 118.789 137.683C118.518 137.253 118.416 136.737 118.503 136.236C118.591 135.735 118.862 135.284 119.264 134.972C119.665 134.66 120.169 134.509 120.676 134.547L180.653 144.912C181.143 145.047 181.565 145.361 181.837 145.791C182.109 146.221 182.211 146.737 182.123 147.238C182.035 147.739 181.764 148.189 181.363 148.501C180.961 148.813 180.458 148.965 179.951 148.926L119.947 138.542L119.973 138.562Z" fill="url(#paint5_linear_77_30)"/>
<path d="M118.428 147.481C117.938 147.345 117.516 147.032 117.244 146.602C116.973 146.172 116.871 145.656 116.958 145.155C117.046 144.654 117.317 144.203 117.719 143.891C118.12 143.579 118.624 143.428 119.131 143.466L160.367 150.545C160.652 150.567 160.929 150.648 161.18 150.783C161.432 150.919 161.653 151.105 161.828 151.33C162.003 151.556 162.129 151.816 162.198 152.093C162.267 152.37 162.277 152.658 162.228 152.94C162.179 153.221 162.071 153.489 161.912 153.726C161.753 153.964 161.546 154.165 161.305 154.318C161.064 154.47 160.793 154.571 160.51 154.612C160.228 154.654 159.94 154.636 159.664 154.56L118.428 147.481Z" fill="url(#paint6_linear_77_30)"/>
<path d="M309.745 85.5132L232.753 85.5938C230.632 85.596 228.914 87.3173 228.916 89.4384L229.123 286.947C229.125 289.068 230.846 290.786 232.968 290.784L309.96 290.703C312.081 290.701 313.799 288.98 313.796 286.859L313.59 89.3497C313.587 87.2287 311.866 85.511 309.745 85.5132Z" fill="#EAE6FF"/>
<path d="M261.481 284.471C260.938 284.471 260.417 284.255 260.033 283.871C259.649 283.487 259.434 282.966 259.434 282.423C259.434 281.88 259.649 281.36 260.033 280.976C260.417 280.592 260.938 280.376 261.481 280.376H281.233C281.776 280.376 282.296 280.592 282.68 280.976C283.064 281.36 283.28 281.88 283.28 282.423C283.28 282.966 283.064 283.487 282.68 283.871C282.296 284.255 281.776 284.471 281.233 284.471H261.488H261.481Z" fill="#B2D4FF"/>
<path d="M307.91 92.803C308.734 92.803 309.402 92.135 309.402 91.3109C309.402 90.4869 308.734 89.8188 307.91 89.8188C307.086 89.8188 306.418 90.4869 306.418 91.3109C306.418 92.135 307.086 92.803 307.91 92.803Z" fill="#B2D4FF"/>
<path d="M302.228 92.8297C303.052 92.8297 303.72 92.1617 303.72 91.3377C303.72 90.5136 303.052 89.8456 302.228 89.8456C301.404 89.8456 300.736 90.5136 300.736 91.3377C300.736 92.1617 301.404 92.8297 302.228 92.8297Z" fill="#B2D4FF"/>
<path d="M296.549 92.8565C297.373 92.8565 298.041 92.1884 298.041 91.3644C298.041 90.5403 297.373 89.8723 296.549 89.8723C295.725 89.8723 295.057 90.5403 295.057 91.3644C295.057 92.1884 295.725 92.8565 296.549 92.8565Z" fill="#B2D4FF"/>
<path d="M264.68 93.7196L234.965 93.5791C234.422 93.5791 233.902 93.3634 233.518 92.9794C233.134 92.5954 232.918 92.0747 232.918 91.5317C232.918 90.9887 233.134 90.4679 233.518 90.0839C233.902 89.7 234.422 89.4843 234.965 89.4843L264.68 89.6248C265.223 89.6248 265.743 89.8405 266.127 90.2244C266.511 90.6084 266.727 91.1292 266.727 91.6722C266.727 92.2152 266.511 92.736 266.127 93.1199C265.743 93.5039 265.223 93.7196 264.68 93.7196Z" fill="#B2D4FF"/>
<path d="M306.431 159.364H235.822C234.122 159.364 232.744 160.742 232.744 162.442V212.952C232.744 214.651 234.122 216.029 235.822 216.029H306.431C308.131 216.029 309.509 214.651 309.509 212.952V162.442C309.509 160.742 308.131 159.364 306.431 159.364Z" fill="url(#paint7_linear_77_30)"/>
<path d="M236.739 168.303C236.196 168.303 235.675 168.087 235.291 167.703C234.907 167.319 234.691 166.799 234.691 166.256C234.691 165.713 234.907 165.192 235.291 164.808C235.675 164.424 236.196 164.208 236.739 164.208L297.626 164.148C298.169 164.148 298.69 164.364 299.074 164.748C299.458 165.132 299.674 165.652 299.674 166.195C299.674 166.738 299.458 167.259 299.074 167.643C298.69 168.027 298.169 168.243 297.626 168.243L236.739 168.303Z" fill="url(#paint8_linear_77_30)"/>
<path d="M236.698 177.142C236.155 177.142 235.634 176.926 235.25 176.542C234.866 176.158 234.65 175.637 234.65 175.094C234.65 174.551 234.866 174.031 235.25 173.647C235.634 173.263 236.155 173.047 236.698 173.047L286.826 172.927C287.369 172.927 287.89 173.142 288.274 173.526C288.658 173.91 288.874 174.431 288.874 174.974C288.874 175.517 288.658 176.038 288.274 176.422C287.89 176.806 287.369 177.021 286.826 177.021L236.704 177.142H236.698Z" fill="url(#paint9_linear_77_30)"/>
<path d="M236.698 186.201C236.155 186.201 235.634 185.986 235.25 185.602C234.866 185.218 234.65 184.697 234.65 184.154C234.65 183.611 234.866 183.09 235.25 182.706C235.634 182.322 236.155 182.106 236.698 182.106L297.585 181.979C298.128 181.979 298.649 182.195 299.033 182.579C299.417 182.963 299.632 183.484 299.632 184.027C299.632 184.57 299.417 185.091 299.033 185.475C298.649 185.858 298.128 186.074 297.585 186.074L236.698 186.201Z" fill="url(#paint10_linear_77_30)"/>
<path d="M306.92 218.719L235.99 218.793C234.282 218.795 232.9 220.18 232.902 221.887L232.955 272.625C232.957 274.332 234.342 275.714 236.049 275.713L306.98 275.638C308.687 275.636 310.069 274.251 310.067 272.544L310.014 221.807C310.013 220.099 308.627 218.717 306.92 218.719Z" fill="url(#paint11_linear_77_30)"/>
<path d="M236.571 271.651C236.291 271.667 236.01 271.626 235.747 271.529C235.483 271.433 235.242 271.284 235.038 271.092C234.834 270.899 234.672 270.667 234.561 270.409C234.45 270.152 234.393 269.874 234.393 269.594C234.393 269.313 234.45 269.035 234.561 268.778C234.672 268.52 234.834 268.288 235.038 268.095C235.242 267.903 235.483 267.754 235.747 267.658C236.01 267.561 236.291 267.52 236.571 267.536H265.77C266.315 267.536 266.837 267.752 267.222 268.138C267.608 268.523 267.824 269.045 267.824 269.59C267.824 270.135 267.608 270.657 267.222 271.043C266.837 271.428 266.315 271.644 265.77 271.644L236.571 271.678V271.651Z" fill="#DFE1E5"/>
<path d="M310.023 220.907L310.07 264.679L250.092 264.739H232.957L232.91 220.974C232.909 220.684 232.966 220.397 233.076 220.129C233.186 219.862 233.348 219.618 233.553 219.413C233.757 219.208 234 219.045 234.268 218.934C234.535 218.823 234.822 218.766 235.111 218.766L307.815 218.686C308.106 218.686 308.394 218.743 308.663 218.855C308.932 218.967 309.176 219.131 309.381 219.337C309.586 219.544 309.748 219.789 309.859 220.058C309.969 220.327 310.025 220.616 310.023 220.907Z" fill="url(#paint12_linear_77_30)"/>
<path d="M306.527 99.1728L235.597 99.2471C233.89 99.2489 232.507 100.634 232.509 102.342L232.562 153.079C232.564 154.786 233.949 156.168 235.657 156.167L306.587 156.092C308.294 156.091 309.677 154.705 309.675 152.998L309.622 102.261C309.62 100.554 308.235 99.171 306.527 99.1728Z" fill="white"/>
<path d="M236.189 152.111C235.644 152.111 235.122 151.895 234.736 151.51C234.351 151.124 234.135 150.602 234.135 150.057C234.135 149.512 234.351 148.99 234.736 148.605C235.122 148.219 235.644 148.003 236.189 148.003H265.388C265.913 148.033 266.407 148.263 266.769 148.645C267.13 149.028 267.331 149.534 267.331 150.06C267.331 150.587 267.13 151.093 266.769 151.475C266.407 151.858 265.913 152.088 265.388 152.118H236.196L236.189 152.111Z" fill="#DFE1E5"/>
<path d="M309.622 101.361L309.669 145.133L249.699 145.2H232.557L232.51 101.434C232.509 101.145 232.565 100.858 232.675 100.59C232.786 100.322 232.948 100.079 233.152 99.8734C233.357 99.6683 233.6 99.5056 233.867 99.3945C234.135 99.2835 234.421 99.2263 234.711 99.2263L307.415 99.146C307.705 99.1451 307.993 99.2018 308.262 99.3129C308.531 99.424 308.775 99.5872 308.98 99.7931C309.185 99.999 309.348 100.244 309.458 100.513C309.568 100.782 309.624 101.07 309.622 101.361Z" fill="url(#paint13_linear_77_30)"/>
<path fill-rule="evenodd" clip-rule="evenodd" d="M271.136 121.835L265.529 136.695C261.603 135.132 258.417 132.135 256.617 128.312L271.096 121.775L271.136 121.835Z" fill="#BBCBFF"/>
<path fill-rule="evenodd" clip-rule="evenodd" d="M271.135 106.018V121.835L271.095 121.801L256.616 128.312C255.694 126.279 255.237 124.066 255.278 121.835V121.005C255.414 117.104 257.054 113.407 259.855 110.688C259.888 110.688 259.908 110.648 259.908 110.628C261.354 109.138 263.09 107.961 265.008 107.168C266.926 106.375 268.986 105.984 271.062 106.018H271.135Z" fill="#C7D4FF" fill-opacity="0.3"/>
<path fill-rule="evenodd" clip-rule="evenodd" d="M265.529 136.695L271.136 121.835V106.018C273.057 106.001 274.964 106.327 276.77 106.981C278.848 107.791 280.729 109.034 282.29 110.628C285.138 113.36 286.793 117.106 286.893 121.052V121.835C286.937 123.912 286.552 125.977 285.761 127.898C284.97 129.82 283.791 131.558 282.297 133.002C280.853 134.51 279.114 135.705 277.188 136.511C275.262 137.317 273.19 137.717 271.103 137.686C269.202 137.676 267.317 137.341 265.529 136.695Z" fill="url(#paint14_linear_77_30)"/>
<path d="M175.971 228.535L175.743 229.739C175.255 231.873 173.843 235.199 170.551 240.21C170.551 240.21 167.58 245.282 160.368 244.258C159.376 244.114 158.366 244.353 157.544 244.927C154.446 247.102 146.069 252.287 135.504 252.99C133.722 253.112 131.932 253.098 130.152 252.95C127.763 252.744 125.403 252.285 123.113 251.578C121.705 251.156 120.326 250.644 118.984 250.046L120.677 235.948L121.935 225.517C121.935 225.517 134.086 229.184 140.094 228.936C144.574 228.709 148.916 227.311 152.686 224.882C156.995 222.051 157.899 218.626 158.809 213.815C159.149 212.084 160.159 210.558 161.619 209.568C163.078 208.578 164.87 208.205 166.604 208.529L168.771 208.937C169.45 209.006 170.121 209.131 170.779 209.312L173.121 209.753C174.052 209.93 174.874 210.469 175.409 211.252C175.943 212.034 176.145 212.997 175.971 213.928L175.094 218.612L173.716 225.919L174.251 226.019C174.81 226.129 175.304 226.455 175.625 226.925C175.947 227.396 176.071 227.974 175.971 228.535Z" fill="url(#paint15_linear_77_30)"/>
<path d="M135.484 252.983C133.701 253.105 131.912 253.092 130.131 252.943C127.75 252.738 125.397 252.281 123.112 251.578C122.978 249.203 122.169 235.025 122.115 234.061C122.517 240.766 127.682 251.832 135.484 252.983Z" fill="#CD6161"/>
<path d="M125.522 292.393C123.722 307.26 121.012 323.934 121.012 323.934L119.212 330.692L100.283 328.015V327.855C100.243 325.874 100.201 323.894 100.156 321.913L99.9556 312.318L99.8753 308.571V307.755C99.8815 307.582 99.9039 307.409 99.9422 307.24C99.9813 307.089 100.004 306.934 100.009 306.778C99.8474 306.783 99.6863 306.801 99.5274 306.832L99.0323 306.912C98.7083 306.965 98.3885 307.041 98.0755 307.14C97.7481 307.217 97.4396 307.359 97.1684 307.558C96.8971 307.757 96.6686 308.008 96.4964 308.297C96.2388 308.85 96.0565 309.435 95.9544 310.037C95.7336 310.973 95.5664 311.917 95.4192 312.874C94.746 317.721 94.56 322.623 94.8638 327.507L70.984 326.168C70.984 326.168 70.5424 317.992 70.2547 309.876V309.24C70.1744 307.006 70.1075 304.798 70.0673 302.784V302.115C70.0071 299.05 70.0138 296.494 70.1208 295.076L70.5691 213.514C70.5691 213.514 69.6726 189.179 70.5691 181.973C71.4657 174.767 77.4006 168.999 83.7502 165.955C86.075 164.845 88.5578 164.102 91.1102 163.753C91.1972 163.753 91.8462 163.205 91.9265 163.151C92.6723 162.636 93.4476 162.164 94.2483 161.739C96.6972 160.494 99.37 159.75 102.11 159.551C102.946 159.485 109.356 159.103 109.356 160.341C109.356 160.622 108.721 160.769 108.533 160.836C107.864 161.05 107.148 161.197 106.452 161.351C104.713 161.719 102.946 162.02 101.22 162.495C100.912 162.582 100.605 162.656 100.304 162.763C100.045 162.838 99.8135 162.984 99.6344 163.185C99.8674 163.102 100.111 163.053 100.357 163.037C100.638 163.037 100.919 163.037 101.2 162.971C101.481 162.904 101.796 162.917 102.09 162.904C103.482 162.823 104.873 162.797 106.265 162.797C107.657 162.797 108.988 162.797 110.347 162.937C111.651 163.039 112.933 163.33 114.154 163.8C115.545 164.369 114.328 164.703 113.665 164.79C112.447 164.913 111.223 164.969 109.999 164.958C109.095 164.958 108.192 164.958 107.322 164.991C106.452 165.025 105.603 164.991 104.746 165.045C104.256 165.048 103.767 165.115 103.294 165.245C103.62 165.432 103.963 165.586 104.318 165.707C104.659 165.868 104.987 166.035 105.335 166.209C106.004 166.564 106.673 166.945 107.342 167.353L107.449 167.413C107.971 167.741 108.487 168.082 108.988 168.45C118.449 175.208 119.353 186.924 119.801 191.869C120.249 196.813 123.267 226.153 123.267 226.153C123.267 226.153 127.321 277.492 125.522 292.393Z" fill="url(#paint16_linear_77_30)"/>
<path d="M53.0514 290.994C51.7516 292.328 50.8437 293.993 50.4272 295.808C50.0106 297.623 50.1013 299.518 50.6895 301.285C51.1644 302.716 52.0891 303.955 53.3258 304.818C54.5869 305.698 56.09 306.166 57.628 306.156C57.4051 306.039 57.2124 305.871 57.065 305.667C56.9176 305.463 56.8194 305.227 56.7783 304.978C56.4303 303.48 56.6378 301.954 56.6177 300.435C56.5976 298.916 56.0356 297.866 55.6743 296.474C55.076 294.173 54.8034 291.799 54.8647 289.422C54.2024 289.875 53.594 290.403 53.0514 290.994Z" fill="#CD6161"/>
<path d="M76.564 304.316C74.854 306.411 72.6924 308.092 70.2411 309.234C70.1608 306.999 70.0939 304.791 70.0537 302.777V302.108C74.5701 299.739 75.9484 294.895 75.5135 290.559C75.0652 286.056 72.3621 279.747 71.4588 272.541C71.2347 270.702 71.2145 268.844 71.3986 267.001C71.563 265.369 71.8697 263.755 72.3152 262.177C72.519 261.269 72.8454 260.393 73.2854 259.574C73.2319 260.042 73.1851 260.504 73.1784 260.972C73.0248 264.852 73.3053 268.737 74.0147 272.554C74.8696 276.332 75.9601 280.053 77.2799 283.695C79.6217 290.426 81.5755 298.234 76.564 304.316Z" fill="#CD6161"/>
<path d="M70.4281 217.675C70.4281 217.675 71.4451 231.506 62.8941 236.939C54.3432 242.372 48.9235 252.261 48.0203 260.357C47.117 268.453 50.2751 279.285 51.6267 284.243C52.9782 289.201 55.2331 298.662 55.2331 298.662C55.2331 298.662 52.9782 299.11 53.4265 302.717C53.8748 306.323 55.6813 306.323 59.2877 306.323C59.2877 306.323 66.4939 305.868 71.4518 302.269C76.4098 298.669 75.9615 289.65 74.6099 286.043C74.6099 286.043 67.8454 271.169 73.2718 259.005L70.4281 217.675Z" fill="url(#paint17_linear_77_30)"/>
<path d="M112.454 235.139H97.1318C92.1542 235.139 88.1191 239.174 88.1191 244.151V286.056C88.1191 291.034 92.1542 295.069 97.1318 295.069H112.454C117.432 295.069 121.467 291.034 121.467 286.056V244.151C121.467 239.174 117.432 235.139 112.454 235.139Z" fill="#FFCCCC"/>
<path d="M103.441 220.72C111.157 220.72 117.412 217.188 117.412 212.831C117.412 208.474 111.157 204.943 103.441 204.943C95.7256 204.943 89.4707 208.474 89.4707 212.831C89.4707 217.188 95.7256 220.72 103.441 220.72Z" fill="#FFCCCC"/>
<path d="M93.9277 210.797C96.9322 212.161 100.199 212.849 103.499 212.813C106.798 212.778 110.049 212.019 113.024 210.59" stroke="#2B2E40" stroke-width="1.79985" stroke-linecap="round" stroke-linejoin="round"/>
<path d="M99.3856 345.09H139.043V347.793H99.3856V345.09ZM63.335 345.09H95.7792V347.793H63.335V345.09Z" fill="#C0B6F2"/>
<path d="M94.8026 325.56L86.3119 325.713L86.265 325.673C85.8167 324.242 84.9207 322.992 83.709 322.108C82.4973 321.224 81.0339 320.752 79.534 320.762H74.7098C74.1874 320.756 73.6693 320.857 73.1872 321.058C72.7052 321.26 72.2694 321.558 71.9066 321.934C71.5438 322.31 71.2617 322.756 71.0775 323.245C70.8934 323.734 70.8111 324.255 70.8358 324.777L70.9228 326.443C69.9058 330.531 65.57 338.379 64.2319 340.567C63.4253 341.924 63.1066 343.515 63.3286 345.077H95.7728V339.664C95.7795 337.429 94.8026 325.56 94.8026 325.56ZM128.224 333.823C126.33 333.442 124.805 331.923 123.5 330.591C121.847 328.912 121.352 326.577 121.279 324.221V322.087H118.08C116.943 322.088 115.833 322.433 114.895 323.076C113.958 323.72 113.237 324.632 112.828 325.693H100.236C99.3897 332.124 99.1054 338.617 99.3859 345.097H139.036C138.588 335.174 130.472 334.271 128.224 333.823Z" fill="#344563"/>
<path d="M108.399 340.126C110.886 340.126 112.902 338.11 112.902 335.623C112.902 333.136 110.886 331.12 108.399 331.12C105.913 331.12 103.896 333.136 103.896 335.623C103.896 338.11 105.913 340.126 108.399 340.126Z" fill="#00E7FF"/>
<path d="M89.4697 340.581C90.715 340.581 91.7245 338.565 91.7245 336.078C91.7245 333.591 90.715 331.575 89.4697 331.575C88.2244 331.575 87.2148 333.591 87.2148 336.078C87.2148 338.565 88.2244 340.581 89.4697 340.581Z" fill="#00E7FF"/>
<path d="M94.8827 193.682H94.876C93.882 193.682 93.0762 194.488 93.0762 195.482V199.095C93.0762 200.089 93.882 200.895 94.876 200.895H94.8827C95.8767 200.895 96.6826 200.089 96.6826 199.095V195.482C96.6826 194.488 95.8767 193.682 94.8827 193.682Z" fill="white"/>
<path d="M112.908 193.682H112.901C111.907 193.682 111.102 194.488 111.102 195.482V199.095C111.102 200.089 111.907 200.895 112.901 200.895H112.908C113.902 200.895 114.708 200.089 114.708 199.095V195.482C114.708 194.488 113.902 193.682 112.908 193.682Z" fill="white"/>
<path d="M112.005 304.082C112.005 304.082 102.49 309.488 100.035 316.246L99.834 306.785C99.834 306.785 107.943 306.337 112.005 304.082Z" fill="#CD6161"/>
<path d="M168.496 232.844C169.264 230.667 170.61 228.74 172.39 227.27C173.059 226.708 172.096 225.758 171.434 226.313C169.483 227.944 168.016 230.078 167.192 232.482C166.904 233.305 168.209 233.66 168.53 232.844H168.496Z" fill="#E68181"/>
<path d="M325.139 242.244H308.264V237.507H325.139V242.244Z" fill="#303048"/>
<path d="M281.127 287.04C281.926 287.415 282.81 287.574 283.69 287.503C284.57 287.431 285.416 287.131 286.145 286.632C301.748 275.926 303.448 253.325 303.541 252.368C303.588 251.052 303.121 249.769 302.239 248.792C301.356 247.814 300.128 247.219 298.814 247.132C297.5 247.045 296.204 247.473 295.2 248.326C294.197 249.178 293.565 250.388 293.438 251.699C293.438 251.993 291.933 270.433 280.444 278.308C279.715 278.812 279.13 279.499 278.749 280.299C278.368 281.1 278.204 281.987 278.273 282.871C278.342 283.754 278.642 284.605 279.143 285.336C279.644 286.068 280.328 286.656 281.127 287.04Z" fill="#2B2E40"/>
<path d="M283.167 286.271L279.759 279.702C278.868 277.987 276.756 277.318 275.041 278.208L268.472 281.617C266.757 282.508 266.088 284.62 266.978 286.335L270.387 292.904C271.278 294.619 273.39 295.288 275.105 294.397L281.674 290.989C283.389 290.098 284.058 287.986 283.167 286.271Z" fill="#505F79"/>
<path d="M313.007 237.648H329.935C331.099 237.648 332.043 236.704 332.043 235.54V204.521C332.043 203.357 331.099 202.413 329.935 202.413H313.007C311.843 202.413 310.9 203.357 310.9 204.521V235.54C310.9 236.704 311.843 237.648 313.007 237.648Z" fill="url(#paint18_linear_77_30)"/>
<path d="M303.479 237.701H320.393C321.561 237.701 322.508 236.755 322.508 235.587V204.521C322.508 203.353 321.561 202.407 320.393 202.407H303.479C302.311 202.407 301.365 203.353 301.365 204.521V235.587C301.365 236.755 302.311 237.701 303.479 237.701Z" fill="url(#paint19_linear_77_30)"/>
<path d="M297.724 215.354H325.11C326.13 215.354 326.957 214.527 326.957 213.507V213.5C326.957 212.48 326.13 211.654 325.11 211.654H297.724C296.705 211.654 295.878 212.48 295.878 213.5V213.507C295.878 214.527 296.705 215.354 297.724 215.354Z" fill="#303047"/>
<path d="M315.447 223.323H321.021C321.532 223.325 322.028 223.147 322.422 222.82C322.816 222.494 323.083 222.039 323.175 221.536L324.513 214.109H311.941L313.279 221.563C313.378 222.063 313.649 222.514 314.045 222.835C314.441 223.157 314.937 223.329 315.447 223.323ZM301.704 223.323H307.278C307.787 223.323 308.281 223.144 308.672 222.818C309.064 222.491 309.328 222.038 309.419 221.536L310.757 214.082H298.191L299.53 221.536C299.622 222.043 299.891 222.501 300.289 222.829C300.687 223.156 301.189 223.331 301.704 223.323Z" fill="#303047"/>
<mask id="mask0_77_30" style="mask-type:luminance" maskUnits="userSpaceOnUse" x="300" y="214" width="9" height="8">
<path d="M302.053 221.59H306.931C307.174 221.589 307.408 221.502 307.592 221.344C307.777 221.185 307.898 220.966 307.935 220.726L308.878 214.424H300.1L301.05 220.726C301.086 220.966 301.208 221.185 301.392 221.344C301.576 221.502 301.811 221.589 302.053 221.59Z" fill="white"/>
</mask>
<g mask="url(#mask0_77_30)">
<path d="M302.053 221.59H306.931C307.174 221.589 307.408 221.502 307.592 221.344C307.777 221.185 307.898 220.966 307.935 220.726L308.878 214.424H300.1L301.05 220.726C301.086 220.966 301.208 221.185 301.392 221.344C301.576 221.502 301.811 221.589 302.053 221.59Z" fill="#00CCFF"/>
<path d="M308.342 222.359L299.05 214.803L301.055 212.337L310.347 219.894L308.342 222.359Z" fill="#67FFCC"/>
</g>
<mask id="mask1_77_30" style="mask-type:luminance" maskUnits="userSpaceOnUse" x="313" y="214" width="10" height="8">
<path d="M315.817 221.59H320.694C320.937 221.589 321.172 221.502 321.356 221.344C321.54 221.185 321.661 220.966 321.698 220.726L322.648 214.424H313.85L314.8 220.726C314.835 220.969 314.958 221.191 315.146 221.35C315.333 221.509 315.571 221.594 315.817 221.59Z" fill="white"/>
</mask>
<g mask="url(#mask1_77_30)">
<path d="M315.815 221.59H320.692C320.935 221.589 321.17 221.502 321.354 221.344C321.538 221.185 321.659 220.966 321.696 220.726L322.646 214.424H313.848L314.798 220.726C314.834 220.969 314.956 221.191 315.144 221.35C315.331 221.509 315.569 221.594 315.815 221.59Z" fill="#00CCFF"/>
<path d="M321.895 222.353L312.603 214.796L314.608 212.331L323.9 219.887L321.895 222.353Z" fill="#67FFCC"/>
</g>
<path d="M311.952 337.811L302.491 340.112C298.469 323.109 298.469 305.402 302.491 288.398L311.952 290.7C308.285 306.19 308.285 322.321 311.952 337.811Z" fill="#2B2E40"/>
<mask id="mask2_77_30" style="mask-type:luminance" maskUnits="userSpaceOnUse" x="286" y="329" width="27" height="19">
<path d="M310.84 332.98C310.878 332.98 310.915 332.992 310.945 333.015C310.975 333.038 310.997 333.07 311.007 333.107C311.255 333.983 312.707 339.129 312.773 340.112C312.84 341.096 312.773 347.927 312.773 347.927H286.853C286.853 347.927 285.575 341.163 292.487 340.112C299.398 339.062 300.409 336.098 300.583 333.756C300.692 332.547 300.692 331.331 300.583 330.123C300.583 330.123 303.533 329.454 304.356 330.792C304.604 331.193 304.818 331.561 304.992 331.876C305.201 332.25 305.508 332.561 305.881 332.773C306.254 332.985 306.677 333.092 307.106 333.08L310.84 332.98Z" fill="white"/>
</mask>
<g mask="url(#mask2_77_30)">
<path d="M310.974 332.973C310.974 332.973 312.7 339.062 312.773 340.112C312.847 341.163 312.773 347.927 312.773 347.927H286.853C286.853 347.927 285.575 341.163 292.487 340.112C299.398 339.062 300.409 336.098 300.583 333.756C300.692 332.547 300.692 331.331 300.583 330.123C300.583 330.123 303.533 329.454 304.356 330.792C304.604 331.193 304.818 331.555 304.992 331.876C305.201 332.25 305.508 332.561 305.881 332.773C306.254 332.985 306.677 333.092 307.106 333.08L310.974 332.973Z" fill="#EAE6FF"/>
<path d="M286.76 345.298H312.807V347.927H286.76V345.298Z" fill="url(#paint20_linear_77_30)"/>
</g>
<path d="M308.137 343.418C309.519 343.418 310.64 342.297 310.64 340.915C310.64 339.533 309.519 338.413 308.137 338.413C306.755 338.413 305.635 339.533 305.635 340.915C305.635 342.297 306.755 343.418 308.137 343.418Z" fill="#88ACFF"/>
<path d="M334.111 337.811L324.657 340.112C320.635 323.109 320.635 305.402 324.657 288.398L334.111 290.7C330.444 306.19 330.444 322.321 334.111 337.811Z" fill="#2B2E40"/>
<path d="M333.001 332.98C333.04 332.979 333.078 332.992 333.109 333.015C333.14 333.037 333.164 333.07 333.175 333.107C333.423 333.983 334.868 339.129 334.941 340.112C335.015 341.096 334.941 347.927 334.941 347.927H309.021C309.021 347.927 307.743 341.163 314.655 340.112C321.566 339.062 322.577 336.098 322.751 333.756C322.86 332.547 322.86 331.331 322.751 330.123C322.751 330.123 325.695 329.454 326.524 330.792C326.772 331.193 326.979 331.561 327.16 331.876C327.368 332.249 327.675 332.559 328.046 332.771C328.418 332.984 328.84 333.09 329.268 333.08L333.001 332.98Z" fill="#B2D4FF"/>
<mask id="mask3_77_30" style="mask-type:luminance" maskUnits="userSpaceOnUse" x="308" y="329" width="27" height="19">
<path d="M333.001 332.98C333.04 332.979 333.078 332.992 333.109 333.015C333.14 333.037 333.164 333.07 333.175 333.107C333.423 333.983 334.868 339.129 334.941 340.112C335.015 341.096 334.941 347.927 334.941 347.927H309.021C309.021 347.927 307.743 341.163 314.655 340.112C321.566 339.062 322.577 336.098 322.751 333.756C322.86 332.547 322.86 331.331 322.751 330.123C322.751 330.123 325.695 329.454 326.524 330.792C326.772 331.193 326.979 331.561 327.16 331.876C327.368 332.249 327.675 332.559 328.046 332.771C328.418 332.984 328.84 333.09 329.268 333.08L333.001 332.98Z" fill="white"/>
</mask>
<g mask="url(#mask3_77_30)">
<path d="M333.135 332.973C333.135 332.973 334.861 339.062 334.941 340.112C335.022 341.163 334.941 347.927 334.941 347.927H309.021C309.021 347.927 307.743 341.163 314.655 340.112C321.566 339.062 322.577 336.098 322.751 333.756C322.86 332.547 322.86 331.331 322.751 330.123C322.751 330.123 325.695 329.454 326.524 330.792C326.772 331.193 326.979 331.555 327.16 331.876C327.368 332.249 327.675 332.559 328.046 332.771C328.418 332.984 328.84 333.09 329.268 333.08L333.135 332.973Z" fill="#F2EDF2"/>
<path d="M308.928 345.298H334.975V347.927H308.928V345.298Z" fill="url(#paint21_linear_77_30)"/>
</g>
<path d="M330.305 343.418C331.687 343.418 332.808 342.297 332.808 340.915C332.808 339.533 331.687 338.413 330.305 338.413C328.923 338.413 327.803 339.533 327.803 340.915C327.803 342.297 328.923 343.418 330.305 343.418Z" fill="#88ACFF"/>
<path d="M308.237 296.762H335.937C338.177 296.762 339.992 294.947 339.992 292.707V247.417C339.992 245.177 338.177 243.362 335.937 243.362H308.237C305.998 243.362 304.182 245.177 304.182 247.417V292.707C304.182 294.947 305.998 296.762 308.237 296.762Z" fill="url(#paint22_linear_77_30)"/>
<path d="M296.271 295.352L323.958 295.468C326.201 295.477 328.027 293.667 328.037 291.424L328.227 246.046C328.236 243.803 326.425 241.977 324.182 241.968L296.496 241.852C294.253 241.843 292.427 243.653 292.417 245.896L292.227 291.274C292.218 293.517 294.028 295.343 296.271 295.352Z" fill="url(#paint23_linear_77_30)"/>
<g opacity="0.49">
<path d="M304.022 252.615V262.906M300.83 252.615V262.906M297.639 252.615V262.906" stroke="#303048" stroke-width="1.45193" stroke-linecap="round" stroke-linejoin="round"/>
<path d="M308.011 254.067C308.613 254.067 309.101 253.579 309.101 252.977C309.101 252.374 308.613 251.886 308.011 251.886C307.408 251.886 306.92 252.374 306.92 252.977C306.92 253.579 307.408 254.067 308.011 254.067Z" fill="#FF6666"/>
<path d="M308.011 257.981C308.613 257.981 309.101 257.493 309.101 256.891C309.101 256.288 308.613 255.8 308.011 255.8C307.408 255.8 306.92 256.288 306.92 256.891C306.92 257.493 307.408 257.981 308.011 257.981Z" fill="#FF9966"/>
</g>
<path d="M350.356 288.934C351.177 288.606 351.897 288.069 352.446 287.377C352.994 286.684 353.351 285.86 353.481 284.986C356.278 266.251 340.882 249.631 340.22 248.929C339.278 248.057 338.041 247.576 336.759 247.581C335.476 247.587 334.243 248.079 333.309 248.957C332.375 249.836 331.809 251.037 331.726 252.317C331.642 253.597 332.048 254.861 332.86 255.854C333.06 256.068 345.572 269.711 343.492 283.487C343.356 284.369 343.457 285.272 343.784 286.102C344.111 286.933 344.652 287.662 345.353 288.215C346.053 288.769 346.888 289.127 347.771 289.253C348.655 289.379 349.556 289.269 350.383 288.934H350.356Z" fill="#2B2E40"/>
<path d="M351.249 286.914L344.118 284.937C342.256 284.42 340.327 285.511 339.811 287.374L337.833 294.505C337.317 296.367 338.408 298.295 340.27 298.812L347.401 300.789C349.264 301.306 351.192 300.215 351.708 298.352L353.686 291.221C354.203 289.359 353.112 287.431 351.249 286.914Z" fill="#505F79"/>
<path d="M233.043 251.578L240.255 249.469L242.142 255.923L234.93 258.032L233.043 251.578Z" fill="#E86456"/>
<path d="M194.739 137.967C194.549 136.815 194.538 135.642 194.705 134.487C194.874 133.291 194.852 132.076 194.638 130.888C194.291 129.549 193.889 128.211 193.521 126.873C193.36 126.284 193.1 123.969 192.303 123.842C192.083 123.809 191.902 124.003 191.788 124.197C191.286 125.04 191.574 125.689 191.674 126.572C191.846 128.031 191.938 129.499 191.949 130.968C191.949 131.871 192.123 133.096 191.28 133.644L190.483 131.075C190.415 130.851 190.266 130.661 190.065 130.541C189.863 130.422 189.625 130.383 189.396 130.43C189.167 130.478 188.964 130.61 188.827 130.8C188.69 130.99 188.63 131.224 188.657 131.456L188.891 133.597C189.072 135.243 189.139 137.679 190.463 138.883C190.873 139.474 191.174 140.134 191.353 140.83L194.953 139.365L194.739 137.967Z" fill="#F17B6B"/>
<path d="M183.718 168.845C182.563 168.636 181.383 168.606 180.219 168.758C179.023 168.912 177.81 168.873 176.626 168.644C175.288 168.283 173.95 167.868 172.652 167.487C172.069 167.32 169.754 167.025 169.641 166.229C169.641 166.015 169.808 165.828 169.995 165.72C170.845 165.232 171.494 165.52 172.377 165.634C173.834 165.819 175.299 165.929 176.766 165.961C177.676 165.961 178.894 166.155 179.443 165.292L176.88 164.469C176.66 164.397 176.475 164.245 176.36 164.043C176.245 163.842 176.21 163.605 176.26 163.378C176.309 163.152 176.442 162.952 176.63 162.817C176.819 162.683 177.051 162.623 177.282 162.649L179.423 162.904C181.062 163.104 183.497 163.198 184.682 164.536C185.269 164.952 185.926 165.26 186.622 165.446L185.117 169.033L183.718 168.845Z" fill="#F17B6B"/>
<mask id="mask4_77_30" style="mask-type:luminance" maskUnits="userSpaceOnUse" x="190" y="137" width="38" height="27">
<path d="M227.938 155.048C222.67 157.811 217.177 160.124 211.519 161.96C208.842 162.756 207.083 164.034 204.54 162.79C203.27 162.089 202.136 161.164 201.195 160.06C197.086 155.617 191.573 144.203 190.335 141.58C190.255 141.43 190.235 141.256 190.278 141.092C190.322 140.928 190.426 140.787 190.57 140.696L195.059 137.552C195.214 137.445 195.405 137.403 195.59 137.436C195.775 137.468 195.94 137.572 196.049 137.726C196.973 139.03 199.442 142.523 202.934 147.622C203.789 148.898 204.707 150.13 205.684 151.315C206.24 152.004 206.851 152.646 207.511 153.235C207.787 153.464 208.124 153.607 208.481 153.648C208.837 153.688 209.198 153.624 209.518 153.463C217.447 149.348 222.592 146.196 224.767 144.818C224.847 144.765 224.927 144.711 225.014 144.664C226.52 147.954 227.507 151.457 227.938 155.048Z" fill="white"/>
</mask>
<g mask="url(#mask4_77_30)">
<path d="M227.938 155.048C222.67 157.811 217.177 160.124 211.519 161.96C208.842 162.756 207.083 164.034 204.54 162.79C203.27 162.089 202.136 161.164 201.195 160.06C197.086 155.617 191.573 144.203 190.335 141.58C190.255 141.43 190.235 141.256 190.278 141.092C190.322 140.928 190.426 140.787 190.57 140.696L195.059 137.552C195.214 137.445 195.405 137.403 195.59 137.436C195.775 137.468 195.94 137.572 196.049 137.726C196.973 139.03 199.442 142.523 202.934 147.622C203.789 148.898 204.707 150.13 205.684 151.315C206.24 152.004 206.851 152.646 207.511 153.235C207.787 153.464 208.124 153.607 208.481 153.648C208.837 153.688 209.198 153.624 209.518 153.463C217.447 149.348 222.592 146.196 224.767 144.818C224.847 144.765 224.927 144.711 225.014 144.664C226.52 147.954 227.507 151.457 227.938 155.048Z" fill="#1F2231"/>
<path d="M199.255 161.92C199.944 162.812 200.742 163.614 201.63 164.309C202.656 165.026 203.758 165.63 204.915 166.108C205.658 166.436 206.668 166.871 207.485 166.47C208.876 165.801 208.896 164.028 208.013 162.957C207.378 162.314 206.584 161.853 205.711 161.619C204.804 161.308 203.975 160.804 203.283 160.14C202.652 159.422 201.903 158.818 201.068 158.354C199.957 157.859 198.331 158.14 198.211 159.571C198.261 160.455 198.632 161.291 199.255 161.92Z" fill="#454D6A"/>
</g>
<path d="M206.551 252.515L214.063 252.34L214.219 259.063L206.707 259.237L206.551 252.515Z" fill="#E86456"/>
<mask id="mask5_77_30" style="mask-type:luminance" maskUnits="userSpaceOnUse" x="197" y="255" width="19" height="17">
<path d="M215.287 270.099L215.32 271.484L197.522 271.898C197.422 271.446 197.373 270.984 197.375 270.52C197.375 269.182 197.817 267.248 200.172 266.693C203.912 265.816 206.829 263.568 206.448 255.86C206.448 255.86 209.987 254.991 209.479 258.537L214.229 258.423C214.365 260.418 214.674 262.397 215.153 264.338C215.648 265.883 215.287 270.099 215.287 270.099Z" fill="white"/>
</mask>
<g mask="url(#mask5_77_30)">
<path d="M215.287 270.099L215.32 271.484L197.522 271.898C197.422 271.446 197.373 270.984 197.375 270.52C197.375 269.182 197.817 267.248 200.172 266.693C203.912 265.816 206.829 263.568 206.448 255.86C206.448 255.86 209.987 254.991 209.479 258.537L214.229 258.423C214.365 260.418 214.674 262.397 215.153 264.338C215.648 265.883 215.287 270.099 215.287 270.099Z" fill="#25293A"/>
<path d="M212.136 268.198C213.174 268.198 214.016 267.357 214.016 266.318C214.016 265.28 213.174 264.438 212.136 264.438C211.098 264.438 210.256 265.28 210.256 266.318C210.256 267.357 211.098 268.198 212.136 268.198Z" fill="#00E7FF"/>
<path d="M196.533 270.56L215.497 270.13L215.606 274.913L196.642 275.343L196.533 270.56Z" fill="#00E7FF"/>
</g>
<mask id="mask6_77_30" style="mask-type:luminance" maskUnits="userSpaceOnUse" x="201" y="182" width="18" height="73">
<path d="M205.993 254.924C205.848 254.922 205.708 254.873 205.594 254.785C205.479 254.697 205.396 254.574 205.357 254.435C204.902 252.702 204.628 250.876 204.293 249.123C203.879 246.928 203.497 244.727 203.149 242.519C202.467 238.183 201.911 233.825 201.483 229.445C200.212 216.351 201.356 203.838 206.548 191.648C207.846 188.59 210.623 181.678 214.771 182.749C217.575 183.465 218.512 187.272 218.666 189.734C219.127 196.913 218.431 204.106 217.495 211.219C216.892 215.829 216.076 220.412 215.762 225.049C215.447 229.685 215.936 234.209 216.484 238.798L217.401 246.46C217.689 248.848 218.231 251.371 218.324 253.82C218.325 253.985 218.265 254.145 218.155 254.268C218.045 254.392 217.893 254.47 217.729 254.489C215.507 254.596 208.02 254.843 205.993 254.924Z" fill="white"/>
</mask>
<g mask="url(#mask6_77_30)">
<path d="M205.993 254.924C205.848 254.922 205.708 254.873 205.594 254.785C205.479 254.697 205.396 254.574 205.357 254.435C204.902 252.702 204.628 250.876 204.293 249.123C203.879 246.928 203.497 244.727 203.149 242.519C202.467 238.183 201.911 233.825 201.483 229.445C200.212 216.351 201.356 203.838 206.548 191.648C207.846 188.59 210.623 181.678 214.771 182.749C217.575 183.465 218.512 187.272 218.666 189.734C219.127 196.913 218.431 204.106 217.495 211.219C216.892 215.829 216.076 220.412 215.762 225.049C215.447 229.685 215.936 234.209 216.484 238.798L217.401 246.46C217.689 248.848 218.231 251.371 218.324 253.82C218.325 253.985 218.265 254.145 218.155 254.268C218.045 254.392 217.893 254.47 217.729 254.489C215.507 254.596 208.02 254.843 205.993 254.924Z" fill="url(#paint24_linear_77_30)"/>
<path d="M203.203 223.279L203.17 223.282C199.797 223.516 197.252 226.44 197.486 229.813L197.755 233.684C197.989 237.057 200.913 239.602 204.286 239.368L204.32 239.366C207.693 239.132 210.237 236.207 210.003 232.834L209.735 228.963C209.501 225.59 206.576 223.045 203.203 223.279Z" fill="#454D6A"/>
</g>
<path d="M228.829 193.441L205.17 195.569C205.498 189.547 205.03 183.605 204.749 177.563C204.512 172.657 204.45 167.732 204.561 162.79C204.561 161.84 204.615 160.89 204.642 159.94C204.689 157.036 205.041 154.145 205.692 151.315C207.064 145.895 210.108 141.693 216.806 139.726C217.983 139.378 219.168 138.903 220.365 139.265L220.539 139.325C221.409 139.736 222.164 140.357 222.734 141.131C223.644 142.209 224.417 143.396 225.036 144.664C226.542 147.954 227.528 151.457 227.96 155.048C228.281 157.236 228.481 159.391 228.662 161.378C228.883 164.075 229.552 193.367 228.829 193.441Z" fill="#25293A"/>
<mask id="mask7_77_30" style="mask-type:luminance" maskUnits="userSpaceOnUse" x="184" y="140" width="37" height="35">
<path d="M209.827 146.584C209.425 149.134 208.381 155.068 206.214 163.733C206.121 164.08 205.928 164.392 205.659 164.63C205.39 164.868 205.057 165.022 204.701 165.071C203.564 165.232 201.436 165.279 197.469 164.784C191.333 164.028 187.084 163.566 185.485 163.392C185.299 163.375 185.114 163.431 184.969 163.549C184.824 163.666 184.731 163.836 184.709 164.021L184.093 169.467C184.072 169.633 184.112 169.801 184.204 169.941C184.296 170.081 184.434 170.184 184.595 170.23C187.379 171.033 199.583 174.465 205.631 174.325C212.49 174.164 212.322 171.314 213.908 167.841C215.494 164.369 220.298 151.696 220.358 145.628C220.405 141.232 216.384 139.92 213.132 141.74C212.249 142.244 211.493 142.941 210.92 143.781C210.348 144.62 209.974 145.579 209.827 146.584Z" fill="white"/>
</mask>
<g mask="url(#mask7_77_30)">
<path d="M209.827 146.584C209.425 149.134 208.381 155.068 206.214 163.733C206.121 164.08 205.928 164.392 205.659 164.63C205.39 164.868 205.057 165.022 204.701 165.071C203.564 165.232 201.436 165.279 197.469 164.784C191.333 164.028 187.084 163.566 185.485 163.392C185.299 163.375 185.114 163.431 184.969 163.549C184.824 163.666 184.731 163.836 184.709 164.021L184.093 169.467C184.072 169.633 184.112 169.801 184.204 169.941C184.296 170.081 184.434 170.184 184.595 170.23C187.379 171.033 199.583 174.465 205.631 174.325C212.49 174.164 212.322 171.314 213.908 167.841C215.494 164.369 220.298 151.696 220.358 145.628C220.405 141.232 216.384 139.92 213.132 141.74C212.249 142.244 211.493 142.941 210.92 143.781C210.348 144.62 209.974 145.579 209.827 146.584Z" fill="#1F2231"/>
<path d="M209.425 175.911C210.459 175.463 211.434 174.89 212.328 174.204C213.283 173.397 214.143 172.483 214.891 171.481C215.4 170.812 216.075 169.969 215.888 169.086C215.573 167.56 213.881 167.079 212.616 167.694C211.844 168.149 211.209 168.803 210.776 169.588C210.252 170.399 209.555 171.084 208.735 171.595C207.883 172.027 207.112 172.602 206.454 173.294C205.691 174.245 205.564 175.89 206.915 176.366C207.712 176.64 208.702 176.238 209.425 175.911Z" fill="#454D6A"/>
</g>
<path d="M214.671 151.944C216.282 151.944 217.588 150.638 217.588 149.027C217.588 147.415 216.282 146.109 214.671 146.109C213.06 146.109 211.754 147.415 211.754 149.027C211.754 150.638 213.06 151.944 214.671 151.944Z" fill="#00E7FF"/>
<path d="M211.497 153.089L211.123 154.692C211.069 154.922 211.212 155.152 211.442 155.206L214.55 155.932C214.781 155.986 215.011 155.843 215.065 155.612L215.439 154.01C215.493 153.779 215.35 153.549 215.12 153.495L212.012 152.769C211.781 152.715 211.551 152.858 211.497 153.089Z" fill="#00E7FF"/>
<path d="M207.492 135.19C207.492 135.19 205.906 140.911 205.484 142.175L207.933 141.606L212.242 135.953L207.492 135.19Z" fill="#232048"/>
<path d="M208.648 129.322C208.748 129.322 208.293 130.038 208.253 130.091C208.014 130.379 207.7 130.594 207.345 130.712C206.99 130.83 206.61 130.847 206.246 130.76C205.878 130.72 205.51 130.66 205.142 130.64C205.082 130.64 204.065 130.586 204.165 130.747C204.165 130.747 204.834 131.838 206.949 131.918C209.063 131.998 210.468 129.375 210.468 129.375L208.648 129.322Z" fill="#232638"/>
<path d="M205.973 122.812C205.973 122.812 204.287 124.585 204.146 125.08C204.006 125.575 204.387 125.983 205.016 126.465C205.645 126.947 205.973 122.812 205.973 122.812Z" fill="#E86456"/>
<path d="M206.193 121.775L204.5 128.144C204.493 128.173 204.497 128.203 204.51 128.228C204.524 128.254 204.546 128.274 204.573 128.285C206.298 128.934 208.096 129.368 209.926 129.576C209.926 129.576 209.418 132.821 204.212 130.76C204.212 130.76 203.543 133.437 203.858 134.414C204.172 135.391 204.788 136.113 207.203 136.193C208.374 136.202 209.543 136.309 210.696 136.515L215.446 124.297L206.193 121.775Z" fill="#F17B6B"/>
<path d="M207.428 122.85L206.995 124.34C206.906 124.646 207.081 124.965 207.386 125.054C207.692 125.142 208.011 124.967 208.1 124.662L208.533 123.171C208.622 122.866 208.447 122.547 208.142 122.458C207.836 122.369 207.517 122.545 207.428 122.85Z" fill="#21304A"/>
<path d="M231.404 119.861C231.578 123.668 231.832 127.522 230.942 131.269C230.581 132.781 230.019 134.44 228.835 135.511C227.757 136.488 226.399 136.568 225.034 136.749C223.93 136.896 222.17 136.495 221.468 137.585C221.217 138.087 221.013 138.611 220.859 139.151C220.324 140.529 219.2 141.198 217.942 141.787C217.888 141.473 217.875 141.118 217.848 140.817C217.032 142.416 215.5 143.005 213.746 143.206L213.78 142.336C213.681 142.725 213.443 143.065 213.112 143.293C212.781 143.52 212.379 143.62 211.98 143.574C210.448 143.513 208.273 143.212 207.37 144.049C207.878 141.169 208.873 138.397 210.314 135.852C212.663 131.791 214.891 125.093 214.891 125.093C214.891 125.093 205.155 122.303 204.526 121.627C203.897 120.952 204.526 115.499 207.29 112.541C210.568 109.008 215.319 108.814 219.648 110.119C224.592 111.618 230.929 113.826 231.404 119.861Z" fill="url(#paint25_linear_77_30)"/>
<path d="M246.594 265.361L246.988 266.7L229.913 271.738C229.697 271.326 229.528 270.89 229.411 270.44C229.063 269.142 228.983 267.168 231.111 266.017C234.496 264.197 236.724 261.273 234.349 253.927C234.349 253.927 237.541 252.16 237.982 255.747L242.532 254.408C243.184 256.299 244.002 258.128 244.974 259.875C245.844 261.2 246.594 265.361 246.594 265.361Z" fill="#F17B6B"/>
<mask id="mask8_77_30" style="mask-type:luminance" maskUnits="userSpaceOnUse" x="229" y="253" width="18" height="19">
<path d="M246.594 265.361L246.988 266.7L229.913 271.738C229.697 271.326 229.528 270.89 229.411 270.44C229.063 269.142 228.983 267.168 231.111 266.017C234.496 264.197 236.724 261.273 234.349 253.927C234.349 253.927 237.541 252.16 237.982 255.747L242.532 254.408C243.184 256.299 244.002 258.128 244.974 259.875C245.844 261.2 246.594 265.361 246.594 265.361Z" fill="white"/>
</mask>
<g mask="url(#mask8_77_30)">
<path d="M246.594 265.361L246.988 266.7L229.913 271.738C229.697 271.326 229.528 270.89 229.411 270.44C229.063 269.142 228.983 267.168 231.111 266.017C234.496 264.197 236.724 261.273 234.349 253.927C234.349 253.927 237.541 252.16 237.982 255.747L242.532 254.408C243.184 256.299 244.002 258.128 244.974 259.875C245.844 261.2 246.594 265.361 246.594 265.361Z" fill="#25293A"/>
<path d="M242.566 264.411C243.604 264.411 244.446 263.57 244.446 262.531C244.446 261.493 243.604 260.651 242.566 260.651C241.527 260.651 240.686 261.493 240.686 262.531C240.686 263.57 241.527 264.411 242.566 264.411Z" fill="#00E7FF"/>
<path d="M228.621 270.686L246.817 265.327L248.169 269.916L229.973 275.275L228.621 270.686Z" fill="#00E7FF"/>
</g>
<mask id="mask9_77_30" style="mask-type:luminance" maskUnits="userSpaceOnUse" x="205" y="187" width="39" height="68">
<path d="M205.684 197.027C205.684 197.221 205.765 197.442 205.832 197.696C206.323 199.476 207.177 201.134 208.341 202.567C210.944 205.853 215.527 207.525 216.209 212.062C217.187 218.288 218.822 224.393 221.087 230.274C222.653 234.436 224.345 238.549 226.165 242.612C227.084 244.678 228.037 246.727 229.022 248.761C229.805 250.387 230.561 252.107 231.465 253.672C231.539 253.799 231.652 253.897 231.787 253.953C231.923 254.008 232.073 254.018 232.214 253.98C234.181 253.398 241.427 251.19 243.555 250.434C243.712 250.375 243.841 250.259 243.917 250.109C243.993 249.959 244.009 249.786 243.963 249.624C243.234 247.283 242.036 244.941 241.126 242.699C240.158 240.282 239.186 237.869 238.209 235.46C236.463 231.124 234.79 226.822 233.88 222.218C233.117 218.398 232.656 214.537 232.18 210.677C231.316 202.758 230.014 194.893 228.28 187.118C228.467 187.894 225.704 189.279 225.168 189.466C223.683 189.995 222.044 190.229 220.518 190.637C217.98 191.301 215.49 192.135 213.065 193.133C212.252 193.459 211.467 193.848 210.716 194.297C209.837 194.719 208.898 195.004 207.933 195.14C206.193 195.528 205.41 195.482 205.684 197.027Z" fill="white"/>
</mask>
<g mask="url(#mask9_77_30)">
<path d="M205.684 197.027C205.684 197.221 205.765 197.442 205.832 197.696C206.323 199.476 207.177 201.134 208.341 202.567C210.944 205.853 215.527 207.525 216.209 212.062C217.187 218.288 218.822 224.393 221.087 230.274C222.653 234.436 224.345 238.549 226.165 242.612C227.084 244.678 228.037 246.727 229.022 248.761C229.805 250.387 230.561 252.107 231.465 253.672C231.539 253.799 231.652 253.897 231.787 253.953C231.923 254.008 232.073 254.018 232.214 253.98C234.181 253.398 241.427 251.19 243.555 250.434C243.712 250.375 243.841 250.259 243.917 250.109C243.993 249.959 244.009 249.786 243.963 249.624C243.234 247.283 242.036 244.941 241.126 242.699C240.158 240.282 239.186 237.869 238.209 235.46C236.463 231.124 234.79 226.822 233.88 222.218C233.117 218.398 232.656 214.537 232.18 210.677C231.316 202.758 230.014 194.893 228.28 187.118C228.467 187.894 225.704 189.279 225.168 189.466C223.683 189.995 222.044 190.229 220.518 190.637C217.98 191.301 215.49 192.135 213.065 193.133C212.252 193.459 211.467 193.848 210.716 194.297C209.837 194.719 208.898 195.004 207.933 195.14C206.193 195.528 205.41 195.482 205.684 197.027Z" fill="#25293A"/>
<path d="M221.283 223.752L221.252 223.764C218.081 224.937 216.461 228.459 217.634 231.63L218.98 235.27C220.153 238.441 223.675 240.061 226.846 238.888L226.877 238.876C230.049 237.703 231.668 234.181 230.495 231.01L229.149 227.37C227.976 224.199 224.454 222.579 221.283 223.752Z" fill="#454D6A"/>
</g>
<path d="M218.611 183.672H216.697C216.246 183.672 215.881 184.038 215.881 184.488V189.058C215.881 189.509 216.246 189.875 216.697 189.875H218.611C219.062 189.875 219.427 189.509 219.427 189.058V184.488C219.427 184.038 219.062 183.672 218.611 183.672Z" fill="#454D6A"/>
<path d="M211.345 183.672H209.432C208.981 183.672 208.615 184.038 208.615 184.488V189.058C208.615 189.509 208.981 189.875 209.432 189.875H211.345C211.796 189.875 212.161 189.509 212.161 189.058V184.488C212.161 184.038 211.796 183.672 211.345 183.672Z" fill="#454D6A"/>
<path d="M225.175 183.672H223.262C222.811 183.672 222.445 184.038 222.445 184.488V189.058C222.445 189.509 222.811 189.875 223.262 189.875H225.175C225.626 189.875 225.992 189.509 225.992 189.058V184.488C225.992 184.038 225.626 183.672 225.175 183.672Z" fill="#454D6A"/>
<path d="M214.195 271.015H205.444C203.707 271.015 202.299 272.423 202.299 274.16C202.299 275.897 203.707 277.305 205.444 277.305H214.195C215.932 277.305 217.34 275.897 217.34 274.16C217.34 272.423 215.932 271.015 214.195 271.015Z" fill="#998DD9"/>
<path d="M217.869 285.24H209.117C207.381 285.24 205.973 286.648 205.973 288.385C205.973 290.122 207.381 291.53 209.117 291.53H217.869C219.606 291.53 221.014 290.122 221.014 288.385C221.014 286.648 219.606 285.24 217.869 285.24Z" fill="#998DD9"/>
<path d="M221.93 299.505H212.047C210.31 299.505 208.902 300.913 208.902 302.65C208.902 304.387 210.31 305.795 212.047 305.795H221.93C223.666 305.795 225.074 304.387 225.074 302.65C225.074 300.913 223.666 299.505 221.93 299.505Z" fill="#998DD9"/>
<path d="M224.018 313.817H215.266C213.529 313.817 212.121 315.225 212.121 316.962C212.121 318.698 213.529 320.106 215.266 320.106H224.018C225.754 320.106 227.162 318.698 227.162 316.962C227.162 315.225 225.754 313.817 224.018 313.817Z" fill="#998DD9"/>
<path d="M229.397 328.122H217.213C215.476 328.122 214.068 329.53 214.068 331.267C214.068 333.004 215.476 334.412 217.213 334.412H229.397C231.134 334.412 232.542 333.004 232.542 331.267C232.542 329.53 231.134 328.122 229.397 328.122Z" fill="#998DD9"/>
<path d="M169.434 236.992H197.114" stroke="#998DD9" stroke-width="6.28945" stroke-linecap="round" stroke-linejoin="round"/>
<path d="M149.521 344.495L171.287 224.447C171.794 221.633 173.272 219.087 175.465 217.252C177.658 215.418 180.425 214.412 183.284 214.41C186.143 214.412 188.91 215.418 191.103 217.252C193.295 219.087 194.774 221.633 195.281 224.447L217.033 344.495" stroke="#C0B6F2" stroke-width="6.28945" stroke-linecap="round" stroke-linejoin="round"/>
</g>
<defs>
<linearGradient id="paint0_linear_77_30" x1="154.787" y1="174.653" x2="230.789" y2="202.567" gradientUnits="userSpaceOnUse">
<stop stop-color="#AEC4D5"/>
<stop offset="1" stop-color="#7896AD"/>
</linearGradient>
<linearGradient id="paint1_linear_77_30" x1="109.254" y1="133.447" x2="253.169" y2="134.886" gradientUnits="userSpaceOnUse">
<stop stop-color="#DEEBFF"/>
<stop offset="1" stop-color="white"/>
</linearGradient>
<linearGradient id="paint2_linear_77_30" x1="122.971" y1="115.224" x2="187.063" y2="115.224" gradientUnits="userSpaceOnUse">
<stop stop-color="#C1C7D0"/>
<stop offset="1" stop-color="#DFE1E5"/>
</linearGradient>
<linearGradient id="paint3_linear_77_30" x1="121.406" y1="122.965" x2="174.893" y2="122.965" gradientUnits="userSpaceOnUse">
<stop stop-color="#C1C7D0"/>
<stop offset="1" stop-color="#DFE1E5"/>
</linearGradient>
<linearGradient id="paint4_linear_77_30" x1="119.841" y1="132.815" x2="183.94" y2="132.815" gradientUnits="userSpaceOnUse">
<stop stop-color="#C1C7D0"/>
<stop offset="1" stop-color="#DFE1E5"/>
</linearGradient>
<linearGradient id="paint5_linear_77_30" x1="118.274" y1="141.733" x2="182.379" y2="141.733" gradientUnits="userSpaceOnUse">
<stop stop-color="#C1C7D0"/>
<stop offset="1" stop-color="#DFE1E5"/>
</linearGradient>
<linearGradient id="paint6_linear_77_30" x1="116.716" y1="149.013" x2="162.067" y2="149.013" gradientUnits="userSpaceOnUse">
<stop stop-color="#C1C7D0"/>
<stop offset="1" stop-color="#DFE1E5"/>
</linearGradient>
<linearGradient id="paint7_linear_77_30" x1="236.641" y1="176.032" x2="315.526" y2="202.684" gradientUnits="userSpaceOnUse">
<stop stop-color="white"/>
<stop offset="0.33" stop-color="#FCFEFF"/>
<stop offset="0.53" stop-color="#F4F9FF"/>
<stop offset="0.7" stop-color="#E6F1FF"/>
<stop offset="0.84" stop-color="#D1E5FF"/>
<stop offset="0.98" stop-color="#B7D7FF"/>
<stop offset="1" stop-color="#B2D4FF"/>
</linearGradient>
<linearGradient id="paint8_linear_77_30" x1="234.691" y1="166.222" x2="299.694" y2="166.222" gradientUnits="userSpaceOnUse">
<stop stop-color="#DFE1E5"/>
<stop offset="1" stop-color="#C1C7D0"/>
</linearGradient>
<linearGradient id="paint9_linear_77_30" x1="234.65" y1="175.034" x2="288.867" y2="175.034" gradientUnits="userSpaceOnUse">
<stop stop-color="#DFE1E5"/>
<stop offset="1" stop-color="#C1C7D0"/>
</linearGradient>
<linearGradient id="paint10_linear_77_30" x1="234.65" y1="184.094" x2="299.646" y2="184.094" gradientUnits="userSpaceOnUse">
<stop stop-color="#DFE1E5"/>
<stop offset="1" stop-color="#C1C7D0"/>
</linearGradient>
<linearGradient id="paint11_linear_77_30" x1="232.91" y1="247.202" x2="310.076" y2="247.202" gradientUnits="userSpaceOnUse">
<stop stop-color="white"/>
<stop offset="0.33" stop-color="#FCFEFF"/>
<stop offset="0.53" stop-color="#F4F9FF"/>
<stop offset="0.7" stop-color="#E6F1FF"/>
<stop offset="0.84" stop-color="#D1E5FF"/>
<stop offset="0.98" stop-color="#B7D7FF"/>
<stop offset="1" stop-color="#B2D4FF"/>
</linearGradient>
<linearGradient id="paint12_linear_77_30" x1="271.182" y1="262.792" x2="272.192" y2="197.007" gradientUnits="userSpaceOnUse">
<stop stop-color="#B3BCD9"/>
<stop offset="1" stop-color="#79A6CF"/>
</linearGradient>
<linearGradient id="paint13_linear_77_30" x1="270.782" y1="143.246" x2="271.799" y2="77.4675" gradientUnits="userSpaceOnUse">
<stop stop-color="#7B8AB8"/>
<stop offset="1" stop-color="#FFC2D1"/>
</linearGradient>
<linearGradient id="paint14_linear_77_30" x1="276.221" y1="106.018" x2="276.221" y2="137.659" gradientUnits="userSpaceOnUse">
<stop stop-color="white"/>
<stop offset="1" stop-color="#FFDDCE"/>
</linearGradient>
<linearGradient id="paint15_linear_77_30" x1="51.1787" y1="230.736" x2="201.851" y2="230.736" gradientUnits="userSpaceOnUse">
<stop stop-color="#FE5746"/>
<stop offset="1" stop-color="#EE9AEB"/>
</linearGradient>
<linearGradient id="paint16_linear_77_30" x1="99.5943" y1="164.784" x2="96.5901" y2="306.444" gradientUnits="userSpaceOnUse">
<stop stop-color="#FE5746"/>
<stop offset="1" stop-color="#EE9AEB"/>
</linearGradient>
<linearGradient id="paint17_linear_77_30" x1="121.433" y1="202.153" x2="47.7593" y2="286.739" gradientUnits="userSpaceOnUse">
<stop stop-color="#FE5746"/>
<stop offset="1" stop-color="#EE9AEB"/>
</linearGradient>
<linearGradient id="paint18_linear_77_30" x1="321.465" y1="243.89" x2="321.465" y2="209.479" gradientUnits="userSpaceOnUse">
<stop stop-color="#77A6FF"/>
<stop offset="1" stop-color="#E5CDFF"/>
</linearGradient>
<linearGradient id="paint19_linear_77_30" x1="311.936" y1="330.263" x2="311.936" y2="189.5" gradientUnits="userSpaceOnUse">
<stop stop-color="#589DB5"/>
<stop offset="0.06" stop-color="#64A4BA"/>
<stop offset="0.28" stop-color="#94BDCD"/>
<stop offset="0.5" stop-color="#BAD2DC"/>
<stop offset="0.69" stop-color="#D5E0E7"/>
<stop offset="0.87" stop-color="#E5E9EE"/>
<stop offset="1" stop-color="#EBECF0"/>
</linearGradient>
<linearGradient id="paint20_linear_77_30" x1="312.807" y1="346.609" x2="286.76" y2="346.609" gradientUnits="userSpaceOnUse">
<stop stop-color="#77A6FF"/>
<stop offset="1" stop-color="#E5CDFF"/>
</linearGradient>
<linearGradient id="paint21_linear_77_30" x1="334.969" y1="346.609" x2="308.921" y2="346.609" gradientUnits="userSpaceOnUse">
<stop stop-color="#77A6FF"/>
<stop offset="1" stop-color="#E5CDFF"/>
</linearGradient>
<linearGradient id="paint22_linear_77_30" x1="321.01" y1="316.333" x2="321.01" y2="268.105" gradientUnits="userSpaceOnUse">
<stop stop-color="#77A6FF"/>
<stop offset="1" stop-color="#E5CDFF"/>
</linearGradient>
<linearGradient id="paint23_linear_77_30" x1="310.239" y1="341.099" x2="310.239" y2="250.631" gradientUnits="userSpaceOnUse">
<stop stop-color="#589DB5"/>
<stop offset="0.06" stop-color="#64A4BA"/>
<stop offset="0.28" stop-color="#94BDCD"/>
<stop offset="0.5" stop-color="#BAD2DC"/>
<stop offset="0.69" stop-color="#D5E0E7"/>
<stop offset="0.87" stop-color="#E5E9EE"/>
<stop offset="1" stop-color="#EBECF0"/>
</linearGradient>
<linearGradient id="paint24_linear_77_30" x1="210.068" y1="182.769" x2="209.68" y2="243.188" gradientUnits="userSpaceOnUse">
<stop stop-color="#232738"/>
<stop offset="1" stop-color="#161B2D"/>
</linearGradient>
<linearGradient id="paint25_linear_77_30" x1="217.787" y1="148.146" x2="217.998" y2="114.091" gradientUnits="userSpaceOnUse">
<stop stop-color="#585590"/>
<stop offset="1" stop-color="#3C3873"/>
</linearGradient>
<clipPath id="clip0_77_30">
<rect width="368" height="347.927" fill="white"/>
</clipPath>
</defs>
</svg>
